<svg width="96" height="185" viewBox="0 0 96 185" fill="none" xmlns="http://www.w3.org/2000/svg">
<path d="M47.5 90.1043L47.5 170.226" stroke="black" stroke-width="3"/>
<path d="M23.9422 183.395L47.548 170.583L70.3107 183.395H23.9422Z" stroke="black" stroke-width="3"/>
<path d="M2.88498 26.9215L47.5339 91.884L92.1828 26.9215H2.88498Z" stroke="black" stroke-width="3"/>
<path d="M15 45H59" stroke="black" stroke-width="3"/>
<path d="M71 45H80" stroke="black" stroke-width="3"/>
<circle cx="81" cy="5" r="4" stroke="black" stroke-width="2"/>
<line x1="79.4091" y1="9.51421" x2="69.9212" y2="35.5142" stroke="black" stroke-width="3"/>
<path d="M71.4344 46.6126C70.3366 49.367 68.6649 51.5142 66.9249 52.7848C65.1655 54.0695 63.5404 54.3368 62.3222 53.8513C61.1041 53.3658 60.1083 52.0539 59.715 49.9112C59.326 47.792 59.5897 45.0837 60.6875 42.3292C61.7853 39.5747 63.457 37.4276 65.197 36.1569C66.9564 34.8723 68.5815 34.6049 69.7997 35.0905C71.0178 35.576 72.0136 36.8879 72.4069 39.0306C72.7959 41.1498 72.5322 43.8581 71.4344 46.6126Z" stroke="black" stroke-width="3"/>
<path d="M65.4075 47.5186L59.4075 61.5186" stroke="black" stroke-width="3"/>
<circle cx="36.5" cy="60.5" r="2.5" stroke="black" stroke-width="2"/>
<circle cx="40.5" cy="72.5" r="2.5" stroke="black" stroke-width="2"/>
<circle cx="47.5" cy="64.5" r="2.5" stroke="black" stroke-width="2"/>
</svg>
