<svg width="136" height="182" viewBox="0 0 136 182" fill="none" xmlns="http://www.w3.org/2000/svg">
<mask id="path-1-inside-1" fill="white">
<path fill-rule="evenodd" clip-rule="evenodd" d="M109 24C109 24 109 24 109 24C109 59.2296 84.5995 87.7888 54.5 87.7888C24.4005 87.7888 -1.52588e-05 59.2296 -1.52588e-05 24L109 24Z"/>
</mask>
<path d="M109 24L109 21L112 21V24H109ZM-1.52588e-05 24H-3.00002V21L-1.52588e-05 21V24ZM106 24C106 24 106 24 106 24C106 24 106 24 106 24H112C112 24 112 24 112 24C112 24 112 24 112 24H106ZM54.5 84.7888C82.5172 84.7888 106 58.033 106 24H112C112 60.4263 86.6818 90.7888 54.5 90.7888V84.7888ZM2.99998 24C2.99998 58.033 26.4828 84.7888 54.5 84.7888V90.7888C22.3181 90.7888 -3.00002 60.4263 -3.00002 24H2.99998ZM-1.52588e-05 21L109 21L109 27L-1.52588e-05 27V21Z" fill="black" mask="url(#path-1-inside-1)"/>
<path d="M54.473 86.7888L54.473 162.373" stroke="black" stroke-width="3"/>
<path d="M91.5965 175.006L54.4879 162.631L17.3793 175.006H91.5965Z" stroke="black" stroke-width="3"/>
<line y1="-1.5" x2="104" y2="-1.5" transform="matrix(-1 0 0 1 105 40)" stroke="black" stroke-width="3"/>
<path d="M84 27C84 13.1929 95.1929 2 109 2C122.807 2 133.667 13.1969 134 27C134.393 43.3192 117.791 55.0165 100.5 52" stroke="black" stroke-width="3"/>
</svg>
