<svg width="137" height="163" viewBox="0 0 137 163" fill="none" xmlns="http://www.w3.org/2000/svg">
<path d="M1.5 48.6664H115.5V124.166C115.5 144.325 99.1584 160.666 79 160.666H38C17.8416 160.666 1.5 144.325 1.5 124.166V48.6664Z" stroke="black" stroke-width="3"/>
<mask id="path-2-inside-1" fill="white">
<path fill-rule="evenodd" clip-rule="evenodd" d="M114 62.1664V130.011C127.476 124.643 137 111.478 137 96.0885C137 80.699 127.476 67.534 114 62.1664Z"/>
</mask>
<path d="M114 62.1664L115.11 59.3794L111 57.7422V62.1664H114ZM114 130.011H111V134.435L115.11 132.798L114 130.011ZM111 62.1664V130.011H117V62.1664H111ZM134 96.0885C134 110.208 125.263 122.295 112.89 127.224L115.11 132.798C129.688 126.991 140 112.748 140 96.0885H134ZM112.89 64.9535C125.263 69.882 134 81.9687 134 96.0885H140C140 79.4294 129.688 65.186 115.11 59.3794L112.89 64.9535Z" fill="black" mask="url(#path-2-inside-1)"/>
<mask id="path-4-inside-2" fill="white">
<path fill-rule="evenodd" clip-rule="evenodd" d="M114 73.1664V119.011C123.106 115.384 129.542 106.488 129.542 96.0885C129.542 85.6894 123.106 76.7935 114 73.1664Z"/>
</mask>
<path d="M114 73.1664L115.11 70.3794L111 68.7422V73.1664H114ZM114 119.011H111V123.435L115.11 121.798L114 119.011ZM111 73.1664V119.011H117V73.1664H111ZM126.542 96.0885C126.542 105.218 120.894 113.036 112.89 116.224L115.11 121.798C125.318 117.732 132.542 107.757 132.542 96.0885H126.542ZM112.89 75.9535C120.894 79.1415 126.542 86.959 126.542 96.0885H132.542C132.542 84.4198 125.318 74.4455 115.11 70.3794L112.89 75.9535Z" fill="black" mask="url(#path-4-inside-2)"/>
<mask id="path-6-inside-3" fill="white">
<path fill-rule="evenodd" clip-rule="evenodd" d="M7 41.1482L35.147 34.1664L39.1318 50.2308H9.25292L7 41.1482Z"/>
</mask>
<path d="M35.147 34.1664L38.0588 33.4442L37.3365 30.5324L34.4248 31.2547L35.147 34.1664ZM7 41.1482L6.27774 38.2365L3.36598 38.9587L4.08824 41.8705L7 41.1482ZM39.1318 50.2308V53.2308H42.9668L42.0435 49.5086L39.1318 50.2308ZM9.25292 50.2308L6.34116 50.9531L6.90615 53.2308H9.25292V50.2308ZM34.4248 31.2547L6.27774 38.2365L7.72226 44.06L35.8693 37.0782L34.4248 31.2547ZM42.0435 49.5086L38.0588 33.4442L32.2352 34.8887L36.22 50.9531L42.0435 49.5086ZM9.25292 53.2308H39.1318V47.2308H9.25292V53.2308ZM4.08824 41.8705L6.34116 50.9531L12.1647 49.5086L9.91176 40.426L4.08824 41.8705Z" fill="black" mask="url(#path-6-inside-3)"/>
<mask id="path-8-inside-4" fill="white">
<path fill-rule="evenodd" clip-rule="evenodd" d="M96.1318 41.1482L67.9848 34.1664L64 50.2308H93.8789L96.1318 41.1482Z"/>
</mask>
<path d="M67.9848 34.1664L65.073 33.4442L65.7953 30.5324L68.707 31.2547L67.9848 34.1664ZM96.1318 41.1482L96.854 38.2365L99.7658 38.9587L99.0435 41.8705L96.1318 41.1482ZM64 50.2308V53.2308H60.165L61.0883 49.5086L64 50.2308ZM93.8789 50.2308L96.7906 50.9531L96.2256 53.2308H93.8789V50.2308ZM68.707 31.2547L96.854 38.2365L95.4095 44.06L67.2625 37.0782L68.707 31.2547ZM61.0883 49.5086L65.073 33.4442L70.8965 34.8887L66.9118 50.9531L61.0883 49.5086ZM93.8789 53.2308H64V47.2308H93.8789V53.2308ZM99.0435 41.8705L96.7906 50.9531L90.9671 49.5086L93.22 40.426L99.0435 41.8705Z" fill="black" mask="url(#path-8-inside-4)"/>
<mask id="path-10-inside-5" fill="white">
<path fill-rule="evenodd" clip-rule="evenodd" d="M63 38.1664H37V50.1664H63V38.1664Z"/>
</mask>
<path d="M37 38.1664V35.1664H34V38.1664H37ZM63 38.1664H66V35.1664H63V38.1664ZM37 50.1664H34V53.1664H37V50.1664ZM63 50.1664V53.1664H66V50.1664H63ZM37 41.1664H63V35.1664H37V41.1664ZM40 50.1664V38.1664H34V50.1664H40ZM37 53.1664H63V47.1664H37V53.1664ZM60 38.1664V50.1664H66V38.1664H60Z" fill="black" mask="url(#path-10-inside-5)"/>
<path d="M98.5 48.5C98.5 48.5 98.7013 14.2453 113.5 3.99999C120 -0.500007 126.06 1.46449 129 8.49999C131.173 13.6997 129 26.5 129 26.5L122.5 26C122.5 26 125.5 8.49999 117.5 13.5C109.5 18.5 108 48.5 108 48.5" stroke="black" stroke-width="3"/>
<line x1="15" y1="112" x2="15" y2="127" stroke="black" stroke-width="2"/>
<line x1="23" y1="119" x2="8" y2="119" stroke="black" stroke-width="2"/>
<line x1="20.5858" y1="113.965" x2="9.7245" y2="124.311" stroke="black" stroke-width="2"/>
<line x1="20.0349" y1="124.586" x2="9.68925" y2="113.724" stroke="black" stroke-width="2"/>
<line x1="37" y1="133" x2="37" y2="148" stroke="black" stroke-width="2"/>
<line x1="45" y1="140" x2="30" y2="140" stroke="black" stroke-width="2"/>
<line x1="42.5858" y1="134.965" x2="31.7245" y2="145.311" stroke="black" stroke-width="2"/>
<line x1="42.0349" y1="145.586" x2="31.6892" y2="134.724" stroke="black" stroke-width="2"/>
<line x1="58" y1="112" x2="58" y2="127" stroke="black" stroke-width="2"/>
<line x1="66" y1="119" x2="51" y2="119" stroke="black" stroke-width="2"/>
<line x1="63.5858" y1="113.965" x2="52.7245" y2="124.311" stroke="black" stroke-width="2"/>
<line x1="63.0349" y1="124.586" x2="52.6892" y2="113.724" stroke="black" stroke-width="2"/>
<line x1="80" y1="133" x2="80" y2="148" stroke="black" stroke-width="2"/>
<line x1="88" y1="140" x2="73" y2="140" stroke="black" stroke-width="2"/>
<line x1="85.5858" y1="134.965" x2="74.7245" y2="145.311" stroke="black" stroke-width="2"/>
<line x1="85.0349" y1="145.586" x2="74.6892" y2="134.724" stroke="black" stroke-width="2"/>
<line x1="99" y1="112" x2="99" y2="127" stroke="black" stroke-width="2"/>
<line x1="107" y1="119" x2="92" y2="119" stroke="black" stroke-width="2"/>
<line x1="104.586" y1="113.965" x2="93.7245" y2="124.311" stroke="black" stroke-width="2"/>
<line x1="104.035" y1="124.586" x2="93.6892" y2="113.724" stroke="black" stroke-width="2"/>
</svg>
