<svg width="148" height="145" viewBox="0 0 148 145" fill="none" xmlns="http://www.w3.org/2000/svg">
<rect x="35.5" y="40.5" width="110" height="103" stroke="black" stroke-width="3"/>
<line x1="34" y1="134.5" x2="144" y2="134.5" stroke="black" stroke-width="3"/>
<circle cx="97.0646" cy="63.5" r="12.5" stroke="black" stroke-width="3"/>
<path d="M88.0646 54.5C69.8788 38.4212 66.4159 26.3399 68.5646 1" stroke="black" stroke-width="3"/>
<circle r="12.5" transform="matrix(-0.978486 0.206313 0.206313 0.978486 123.593 61.1518)" stroke="black" stroke-width="3"/>
<path d="M130.543 50.4886C145.02 31.0037 122 32 134.5 7.5" stroke="black" stroke-width="3"/>
<path d="M36 63.5H85" stroke="black" stroke-width="3"/>
<path d="M136 63.5H145" stroke="black" stroke-width="3"/>
<path d="M35.287 75L2 23.0124C2 23.0124 7 7 31 7C55 7 60 23.0124 60 23.0124L50.4 40.8137" stroke="black" stroke-width="3"/>
</svg>
