<svg width="132" height="177" viewBox="0 0 132 177" fill="none" xmlns="http://www.w3.org/2000/svg">
<line x1="56.5" y1="86.0985" x2="56.5" y2="162.225" stroke="black" stroke-width="3"/>
<path d="M18.5771 175.5L56.5562 162.805L94.5353 175.5H18.5771Z" stroke="black" stroke-width="3"/>
<mask id="path-3-inside-1" fill="white">
<path fill-rule="evenodd" clip-rule="evenodd" d="M0 27.4239C0 27.2823 0.000924919 27.141 0.00276904 26.9999H111.997C111.999 27.141 112 27.2823 112 27.4239C112 42.7726 101.126 55.5817 86.662 58.5678C81.0681 75.4771 69.4391 87.1002 56 87.1002C42.5609 87.1002 30.9319 75.4771 25.338 58.5678C10.8738 55.5817 0 42.7726 0 27.4239Z"/>
</mask>
<path d="M0.00276904 26.9999V23.9999H-2.95828L-2.99697 26.9607L0.00276904 26.9999ZM111.997 26.9999L114.997 26.9606L114.958 23.9999H111.997V26.9999ZM86.662 58.5678L86.0555 55.6298L84.3581 55.9802L83.8138 57.6256L86.662 58.5678ZM25.338 58.5678L28.1862 57.6256L27.6419 55.9802L25.9446 55.6298L25.338 58.5678ZM-2.99697 26.9607C-2.99899 27.1149 -3 27.2693 -3 27.4239H3C3 27.2954 3.00084 27.1671 3.00251 27.0391L-2.99697 26.9607ZM111.997 23.9999H0.00276904V29.9999H111.997V23.9999ZM115 27.4239C115 27.2693 114.999 27.1149 114.997 26.9606L108.997 27.0391C108.999 27.1671 109 27.2954 109 27.4239H115ZM87.2686 61.5058C103.098 58.2378 115 44.2241 115 27.4239H109C109 41.3212 99.1541 52.9256 86.0555 55.6298L87.2686 61.5058ZM56 90.1002C71.3303 90.1002 83.736 76.9645 89.5102 59.51L83.8138 57.6256C78.4003 73.9897 67.5479 84.1002 56 84.1002V90.1002ZM22.4898 59.51C28.2641 76.9645 40.6697 90.1002 56 90.1002V84.1002C44.4522 84.1002 33.5998 73.9898 28.1862 57.6256L22.4898 59.51ZM-3 27.4239C-3 44.2241 8.90155 58.2378 24.7315 61.5059L25.9446 55.6298C12.846 52.9256 3 41.3212 3 27.4239H-3Z" fill="black" mask="url(#path-3-inside-1)"/>
<path d="M3 35.5H110" stroke="black" stroke-width="3"/>
<path d="M80 27C80 13.1929 91.1929 2 105 2C118.807 2 129.667 13.1969 130 27C130.393 43.3192 113.791 55.0165 96.5 52" stroke="black" stroke-width="3"/>
</svg>
