<svg width="76" height="161" viewBox="0 0 76 161" fill="none" xmlns="http://www.w3.org/2000/svg">
<rect x="7.5" y="4.50002" width="62" height="155" stroke="black" stroke-width="3"/>
<mask id="path-2-inside-1" fill="white">
<path fill-rule="evenodd" clip-rule="evenodd" d="M51.853 69.7065C60.4452 60.463 63.2353 46.3884 57.8456 33.6616C52.4558 20.9348 40.406 13.1449 27.7886 12.8836L51.853 69.7065Z"/>
</mask>
<path d="M51.853 69.7065L49.0905 70.8764L50.8968 75.1415L54.0503 71.7489L51.853 69.7065ZM27.7886 12.8836L27.8507 9.88426L23.2198 9.78838L25.0261 14.0535L27.7886 12.8836ZM55.0831 34.8315C60.0131 46.4726 57.4408 59.2887 49.6557 67.664L54.0503 71.7489C63.4496 61.6372 66.4576 46.3041 60.6081 32.4917L55.0831 34.8315ZM27.7265 15.883C39.1588 16.1197 50.1531 23.1904 55.0831 34.8315L60.6081 32.4917C54.7585 18.6792 41.6533 10.1701 27.8507 9.88426L27.7265 15.883ZM25.0261 14.0535L49.0905 70.8764L54.6155 68.5365L30.5511 11.7137L25.0261 14.0535Z" fill="black" mask="url(#path-2-inside-1)"/>
<mask id="path-4-inside-2" fill="white">
<path fill-rule="evenodd" clip-rule="evenodd" d="M43.6043 61.4994C30.9846 61.3957 18.7146 68.8339 12.9591 81.3995C7.20354 93.9651 9.58554 108.114 17.9068 117.603L43.6043 61.4994Z"/>
</mask>
<path d="M43.6043 61.4994L46.3318 62.7487L48.2607 58.5375L43.629 58.4995L43.6043 61.4994ZM17.9068 117.603L15.6514 119.581L18.7055 123.063L20.6343 118.852L17.9068 117.603ZM15.6866 82.6488C20.9511 71.1551 32.1453 64.4053 43.5797 64.4993L43.629 58.4995C29.8239 58.386 16.4781 66.5127 10.2316 80.1502L15.6866 82.6488ZM20.1623 115.624C12.6226 107.028 10.422 94.1425 15.6866 82.6488L10.2316 80.1502C3.98507 93.7877 6.54844 109.201 15.6514 119.581L20.1623 115.624ZM20.6343 118.852L46.3318 62.7487L40.8768 60.2501L15.1793 116.353L20.6343 118.852Z" fill="black" mask="url(#path-4-inside-2)"/>
<mask id="path-6-inside-3" fill="white">
<path fill-rule="evenodd" clip-rule="evenodd" d="M56.7273 154.72C65.34 145.496 68.1615 131.427 62.8001 118.689C57.4386 105.95 45.4062 98.1331 32.7894 97.8438L56.7273 154.72Z"/>
</mask>
<path d="M56.7273 154.72L53.9622 155.884L55.759 160.153L58.9201 156.767L56.7273 154.72ZM32.7894 97.8438L32.8582 94.8445L28.2275 94.7384L30.0243 99.0075L32.7894 97.8438ZM60.035 119.852C64.9391 131.504 62.3383 144.315 54.5345 152.673L58.9201 156.767C68.3418 146.677 71.3839 131.35 65.5651 117.525L60.035 119.852ZM32.7206 100.843C44.1523 101.105 55.1309 108.2 60.035 119.852L65.5651 117.525C59.7463 103.699 46.6601 95.161 32.8582 94.8445L32.7206 100.843ZM30.0243 99.0075L53.9622 155.884L59.4924 153.556L35.5545 96.68L30.0243 99.0075Z" fill="black" mask="url(#path-6-inside-3)"/>
<path d="M51.5 83.047C51.5 86.9785 50.5938 90.4639 49.2054 92.9141C47.7916 95.4091 46.0703 96.547 44.5 96.547C42.9297 96.547 41.2084 95.4091 39.7946 92.9141C38.4062 90.4639 37.5 86.9785 37.5 83.047C37.5 79.3988 39.3871 75.9761 41.4311 73.365C42.4385 72.0783 43.4486 71.0337 44.2064 70.3119C44.3093 70.2139 44.4074 70.122 44.5 70.0364C44.5926 70.122 44.6907 70.2139 44.7936 70.3119C45.5514 71.0337 46.5615 72.0783 47.5689 73.365C49.6129 75.9761 51.5 79.3988 51.5 83.047Z" stroke="black" stroke-width="3"/>
<path d="M50.2801 76.2645C55.0497 69.491 65.8661 68.8938 65.8661 68.8938C65.8661 68.8938 67 77.047 63 84.047C60.4042 88.5896 56.0408 92.4549 51.3276 89.834" stroke="black" stroke-width="3"/>
<path d="M66.5 15.047C66.5 18.9785 65.5938 22.4639 64.2054 24.9141C62.7916 27.4091 61.0703 28.547 59.5 28.547C57.9297 28.547 56.2084 27.4091 54.7946 24.9141C53.4062 22.4639 52.5 18.9785 52.5 15.047C52.5 11.3988 54.3871 7.97608 56.4311 5.36503C57.4385 4.07826 58.4486 3.03375 59.2064 2.3119C59.3093 2.21389 59.4074 2.12199 59.5 2.03641C59.5926 2.12199 59.6907 2.21389 59.7936 2.3119C60.5514 3.03375 61.5615 4.07826 62.5689 5.36503C64.6129 7.97608 66.5 11.3988 66.5 15.047Z" stroke="black" stroke-width="3"/>
<path d="M26.5 140.047C26.5 143.979 25.5938 147.464 24.2054 149.914C22.7916 152.409 21.0703 153.547 19.5 153.547C17.9297 153.547 16.2084 152.409 14.7946 149.914C13.4062 147.464 12.5 143.979 12.5 140.047C12.5 136.399 14.3871 132.976 16.4311 130.365C17.4385 129.078 18.4486 128.034 19.2064 127.312C19.3093 127.214 19.4074 127.122 19.5 127.036C19.5926 127.122 19.6907 127.214 19.7936 127.312C20.5514 128.034 21.5615 129.078 22.5689 130.365C24.6129 132.976 26.5 136.399 26.5 140.047Z" stroke="black" stroke-width="3"/>
<path d="M25.2801 133.265C30.0497 126.491 40.8661 125.894 40.8661 125.894C40.8661 125.894 42 134.047 38 141.047C35.4042 145.59 31.0408 149.455 26.3276 146.834" stroke="black" stroke-width="3"/>
<path d="M25.4797 47.3732C28.323 50.0884 30.2179 53.1509 31.031 55.8471C31.859 58.5927 31.4932 60.6235 30.4087 61.7591C29.3242 62.8947 27.3125 63.3537 24.5317 62.6531C21.8008 61.9651 18.6543 60.2134 15.811 57.4981C13.1725 54.9786 12.0004 51.25 11.5238 47.9685C11.2889 46.3513 11.2311 44.8994 11.2324 43.8528C11.2326 43.7107 11.2339 43.5763 11.2359 43.4502C11.3618 43.4424 11.4959 43.4349 11.6379 43.4282C12.6833 43.3786 14.1364 43.3694 15.7627 43.5296C19.0627 43.8546 22.8413 44.8536 25.4797 47.3732Z" stroke="black" stroke-width="3"/>
<path d="M19.7321 43.5712C18.1274 35.4439 25.1656 27.2089 25.1656 27.2089C25.1656 27.2089 31.8451 32.0196 34.1451 39.7469C35.6377 44.7614 35.4196 50.5865 30.2691 52.1851" stroke="black" stroke-width="3"/>
<line x1="6" y1="27.5" x2="36" y2="27.5" stroke="black" stroke-width="3"/>
<path d="M53 27.5H70" stroke="black" stroke-width="3"/>
</svg>
