<svg width="150" height="168" viewBox="0 0 150 168" fill="none" xmlns="http://www.w3.org/2000/svg">
<path d="M14.5 54.5H128.5V130C128.5 150.158 112.158 166.5 92 166.5H51C30.8416 166.5 14.5 150.158 14.5 130V54.5Z" stroke="black" stroke-width="3"/>
<mask id="path-2-inside-1" fill="white">
<path fill-rule="evenodd" clip-rule="evenodd" d="M127 68V135.844C140.476 130.477 150 117.312 150 101.922C150 86.5326 140.476 73.3676 127 68Z"/>
</mask>
<path d="M127 68L128.11 65.213L124 63.5758V68H127ZM127 135.844H124V140.268L128.11 138.631L127 135.844ZM124 68V135.844H130V68H124ZM147 101.922C147 116.042 138.263 128.129 125.89 133.057L128.11 138.631C142.688 132.825 153 118.581 153 101.922H147ZM125.89 70.787C138.263 75.7156 147 87.8022 147 101.922H153C153 85.263 142.688 71.0196 128.11 65.213L125.89 70.787Z" fill="black" mask="url(#path-2-inside-1)"/>
<mask id="path-4-inside-2" fill="white">
<path fill-rule="evenodd" clip-rule="evenodd" d="M127 79V124.844C136.106 121.217 142.542 112.321 142.542 101.922C142.542 91.523 136.106 82.627 127 79Z"/>
</mask>
<path d="M127 79L128.11 76.213L124 74.5758V79H127ZM127 124.844H124V129.268L128.11 127.631L127 124.844ZM124 79V124.844H130V79H124ZM139.542 101.922C139.542 111.052 133.894 118.869 125.89 122.057L128.11 127.631C138.318 123.565 145.542 113.591 145.542 101.922H139.542ZM125.89 81.787C133.894 84.9751 139.542 92.7926 139.542 101.922H145.542C145.542 90.2534 138.318 80.279 128.11 76.213L125.89 81.787Z" fill="black" mask="url(#path-4-inside-2)"/>
<mask id="path-6-inside-3" fill="white">
<path fill-rule="evenodd" clip-rule="evenodd" d="M20 46.9818L48.147 40L52.1318 56.0644H22.2529L20 46.9818Z"/>
</mask>
<path d="M48.147 40L51.0588 39.2777L50.3365 36.366L47.4248 37.0882L48.147 40ZM20 46.9818L19.2777 44.0701L16.366 44.7923L17.0882 47.7041L20 46.9818ZM52.1318 56.0644V59.0644H55.9668L55.0435 55.3422L52.1318 56.0644ZM22.2529 56.0644L19.3412 56.7867L19.9062 59.0644H22.2529V56.0644ZM47.4248 37.0882L19.2777 44.0701L20.7223 49.8936L48.8693 42.9118L47.4248 37.0882ZM55.0435 55.3422L51.0588 39.2777L45.2352 40.7223L49.22 56.7867L55.0435 55.3422ZM22.2529 59.0644H52.1318V53.0644H22.2529V59.0644ZM17.0882 47.7041L19.3412 56.7867L25.1647 55.3422L22.9118 46.2596L17.0882 47.7041Z" fill="black" mask="url(#path-6-inside-3)"/>
<mask id="path-8-inside-4" fill="white">
<path fill-rule="evenodd" clip-rule="evenodd" d="M109.132 46.9818L80.9848 40L77 56.0644H106.879L109.132 46.9818Z"/>
</mask>
<path d="M80.9848 40L78.073 39.2777L78.7953 36.366L81.707 37.0882L80.9848 40ZM109.132 46.9818L109.854 44.0701L112.766 44.7923L112.044 47.7041L109.132 46.9818ZM77 56.0644V59.0644H73.165L74.0883 55.3422L77 56.0644ZM106.879 56.0644L109.791 56.7867L109.226 59.0644H106.879V56.0644ZM81.707 37.0882L109.854 44.0701L108.41 49.8936L80.2625 42.9118L81.707 37.0882ZM74.0883 55.3422L78.073 39.2777L83.8965 40.7223L79.9118 56.7867L74.0883 55.3422ZM106.879 59.0644H77V53.0644H106.879V59.0644ZM112.044 47.7041L109.791 56.7867L103.967 55.3422L106.22 46.2596L112.044 47.7041Z" fill="black" mask="url(#path-8-inside-4)"/>
<mask id="path-10-inside-5" fill="white">
<path fill-rule="evenodd" clip-rule="evenodd" d="M76 44H50V56H76V44Z"/>
</mask>
<path d="M50 44V41H47V44H50ZM76 44H79V41H76V44ZM50 56H47V59H50V56ZM76 56V59H79V56H76ZM50 47H76V41H50V47ZM53 56V44H47V56H53ZM50 59H76V53H50V59ZM73 44V56H79V44H73Z" fill="black" mask="url(#path-10-inside-5)"/>
<path d="M127.762 54.225C130.912 46.563 125.013 36.8765 125.013 36.8765C125.013 36.8765 114.007 39.6126 110.857 47.2745C107.707 54.9365 110.857 54.225 110.857 54.225" stroke="black" stroke-width="3"/>
<path fill-rule="evenodd" clip-rule="evenodd" d="M15.2915 53.66C10.581 43.808 11.6375 32.675 17.1365 24.0506L28.5939 48.0135L31.3485 46.8197L19.1336 21.2723L17.7121 18.2992C16.9744 19.1381 16.2817 20.0101 15.6355 20.9112C8.71966 30.554 7.12018 43.5248 12.5809 54.9459C12.5819 54.9479 12.5828 54.95 12.5838 54.952L15.3387 53.7581C15.3229 53.7255 15.3072 53.6927 15.2915 53.66Z" fill="black"/>
<circle cx="34.5" cy="134.5" r="1.5" stroke="black" stroke-width="2"/>
<circle cx="47.5" cy="151.5" r="1.5" stroke="black" stroke-width="2"/>
<circle cx="56.5" cy="134.5" r="1.5" stroke="black" stroke-width="2"/>
<circle cx="69.5" cy="151.5" r="1.5" stroke="black" stroke-width="2"/>
<circle cx="105.5" cy="134.5" r="1.5" stroke="black" stroke-width="2"/>
<circle cx="81.5" cy="134.5" r="1.5" stroke="black" stroke-width="2"/>
<circle cx="94.5" cy="151.5" r="1.5" stroke="black" stroke-width="2"/>
<line y1="-1.5" x2="56.3028" y2="-1.5" transform="matrix(-0.337461 0.941339 -0.960205 -0.279298 125 0)" stroke="black" stroke-width="3"/>
</svg>
