<svg width="116" height="132" viewBox="0 0 116 132" fill="none" xmlns="http://www.w3.org/2000/svg">
<circle cx="76.7291" cy="89.9374" r="34.1459" stroke="black" stroke-width="3"/>
<mask id="path-2-inside-1" fill="white">
<path fill-rule="evenodd" clip-rule="evenodd" d="M33.1956 78.1133C42.8801 66.3339 45.212 49.1537 37.7771 34.1996C30.3421 19.2455 15.237 10.7347 -7.74358e-05 11.3459L33.1956 78.1133Z"/>
</mask>
<path d="M33.1956 78.1133L30.5093 79.4489L32.5714 83.5964L35.513 80.0185L33.1956 78.1133ZM-7.74358e-05 11.3459L-0.12032 8.34829L-4.74846 8.53394L-2.68638 12.6815L-7.74358e-05 11.3459ZM35.0908 35.5352C42.0008 49.4336 39.8099 65.3444 30.8783 76.2081L35.513 80.0185C45.9503 67.3235 48.4232 48.8738 40.4634 32.864L35.0908 35.5352ZM0.120165 14.3435C14.1728 13.7798 28.1807 21.6368 35.0908 35.5352L40.4634 32.864C32.5036 16.8542 16.3013 7.68957 -0.12032 8.34829L0.120165 14.3435ZM-2.68638 12.6815L30.5093 79.4489L35.8819 76.7777L2.68622 10.0103L-2.68638 12.6815Z" fill="black" mask="url(#path-2-inside-1)"/>
<rect x="7.54156" y="30.4166" width="106.958" height="99.7084" stroke="black" stroke-width="3"/>
<line x1="64.2607" y1="1.58582" x2="26.8023" y2="117.586" stroke="black" stroke-width="3"/>
<line x1="8.45825" y1="61.25" x2="26.5833" y2="61.25" stroke="black" stroke-width="3"/>
<line x1="95.2499" y1="61.25" x2="113.375" y2="61.25" stroke="black" stroke-width="3"/>
<line x1="38.6666" y1="61.25" x2="59.2082" y2="61.25" stroke="black" stroke-width="3"/>
</svg>
